<?xml version="1.0" standalone="no"?>
<!DOCTYPE svg PUBLIC "-//W3C//DTD SVG 20010904//EN"
 "http://www.w3.org/TR/2001/REC-SVG-20010904/DTD/svg10.dtd">
<svg version="1.0" xmlns="http://www.w3.org/2000/svg"
 width="250.000000pt" height="250.000000pt" viewBox="0 0 250.000000 250.000000"
 preserveAspectRatio="xMidYMid meet">
<metadata>
Created by potrace 1.11, written by Peter Selinger 2001-2013
</metadata>
<g transform="translate(0.000000,250.000000) scale(0.100000,-0.100000)"
fill="#000000" stroke="none">
<path d="M1271 1761 c-17 -31 -13 -96 7 -119 15 -18 34 -21 198 -26 210 -8
210 -8 199 73 -12 87 -8 86 -213 89 -172 3 -181 2 -191 -17z m366 -27 c7 -10
13 -35 13 -56 l0 -38 -161 0 c-91 0 -169 4 -180 10 -14 8 -19 21 -19 54 0 23
3 46 8 51 4 4 79 5 166 2 138 -5 162 -8 173 -23z"/>
<path d="M930 1583 c-110 -5 -120 -13 -120 -104 0 -55 3 -70 18 -77 9 -4 99
-6 200 -3 147 5 185 9 192 21 5 8 10 45 10 82 0 56 -3 69 -19 78 -19 9 -90 10
-281 3z m278 -85 c3 -49 0 -58 -17 -68 -13 -7 -82 -9 -188 -8 l-168 3 0 58 c0
40 5 61 15 68 8 5 91 8 185 6 l170 -2 3 -57z"/>
<path d="M1283 1579 c-18 -18 -17 -153 0 -167 8 -7 87 -12 206 -13 156 -2 195
1 203 12 14 22 3 139 -16 158 -14 13 -46 17 -199 19 -138 3 -185 0 -194 -9z
m373 -30 c13 -10 25 -95 17 -116 -6 -16 -333 -19 -364 -3 -15 9 -19 22 -19 63
0 29 6 59 13 66 9 10 47 12 177 7 90 -4 169 -11 176 -17z"/>
<path d="M972 1360 c-130 -4 -165 -8 -172 -20 -14 -22 -12 -154 2 -168 9 -9
68 -12 204 -12 231 0 224 -3 224 105 0 65 -3 76 -22 89 -12 9 -34 15 -48 14
-14 -1 -98 -4 -188 -8z m226 -32 c7 -7 12 -36 12 -64 0 -83 -3 -84 -204 -84
-120 0 -176 4 -184 12 -15 15 -16 102 -2 129 10 18 23 19 188 19 125 0 182 -4
190 -12z"/>
<path d="M1293 1355 c-20 -14 -23 -25 -23 -86 0 -115 -12 -109 220 -109 231 0
220 -5 220 104 0 92 -6 96 -139 96 -59 0 -141 3 -182 6 -59 5 -78 2 -96 -11z
m387 -41 c14 -35 12 -108 -2 -122 -8 -8 -64 -12 -184 -12 -200 0 -204 2 -204
80 0 84 -11 80 196 80 l184 0 10 -26z"/>
<path d="M478 1351 c-42 -3 -80 -9 -84 -13 -14 -14 -24 -127 -14 -153 l10 -25
169 0 c138 0 171 3 181 15 19 23 19 163 0 175 -16 10 -134 11 -262 1z m236
-17 c21 -8 23 -126 2 -143 -9 -8 -61 -11 -162 -9 l-149 3 -3 52 c-5 89 -1 92
146 96 70 1 132 4 139 5 6 1 18 -1 27 -4z"/>
<path d="M1763 1349 c-16 -16 -17 -142 -3 -170 10 -18 23 -19 180 -19 159 0
170 1 180 20 13 24 2 146 -14 159 -6 5 -83 12 -171 15 -123 6 -163 4 -172 -5z
m325 -32 c9 -7 12 -30 10 -71 l-3 -61 -149 -3 c-101 -2 -153 1 -162 9 -16 13
-20 119 -5 135 13 12 292 5 309 -9z"/>
<path d="M128 1333 c-49 -5 -60 -27 -56 -106 l3 -62 128 -3 127 -3 11 27 c5
15 9 55 7 88 l-3 61 -90 1 c-50 1 -107 -1 -127 -3z m198 -26 c2 -7 1 -37 -3
-67 l-8 -55 -110 0 -110 0 -3 36 c-2 19 2 47 7 62 9 23 17 26 63 30 123 8 159
7 164 -6z"/>
<path d="M2168 1335 c-12 -12 -10 -133 2 -156 10 -17 22 -19 135 -19 117 0
124 1 130 21 10 30 -4 126 -20 139 -15 13 -237 26 -247 15z m234 -39 c4 -6 8
-35 8 -63 l0 -53 -105 0 c-93 0 -105 2 -115 19 -11 22 -14 104 -3 115 11 11
207 -5 215 -18z"/>
<path d="M1378 1103 c-43 -2 -80 -9 -86 -16 -19 -22 -24 -130 -8 -152 13 -18
24 -19 198 -16 143 2 187 6 199 17 10 9 19 40 23 75 11 93 1 100 -138 97 -61
-1 -145 -4 -188 -5z m300 -84 c-3 -38 -10 -64 -19 -70 -8 -5 -90 -8 -184 -6
l-170 2 -3 53 c-5 83 -7 82 200 82 l180 0 -4 -61z"/>
<path d="M1310 883 c-27 -10 -40 -36 -40 -85 0 -73 11 -77 207 -69 184 7 188
8 201 83 15 78 15 78 -181 77 -95 0 -179 -3 -187 -6z m345 -22 c6 -10 -9 -89
-19 -99 -4 -3 -81 -8 -172 -10 l-165 -5 3 54 3 54 85 6 c147 9 259 9 265 0z"/>
</g>
</svg>
